<svg xmlns="http://www.w3.org/2000/svg" xmlns:xlink="http://www.w3.org/1999/xlink" width="251.238" height="501.787" viewBox="0 0 251.238 501.787">
  <defs>
    <linearGradient id="linear-gradient" x1="0.296" y1="-0.06" x2="0.552" y2="0.928" gradientUnits="objectBoundingBox">
      <stop offset="0" stop-color="#006884"/>
      <stop offset="1" stop-color="#8ad1d0"/>
    </linearGradient>
    <linearGradient id="linear-gradient-2" x1="-0.077" y1="0.161" x2="0.917" y2="0.865" gradientUnits="objectBoundingBox">
      <stop offset="0" stop-color="#24bbb6"/>
      <stop offset="1" stop-color="#dbe692"/>
    </linearGradient>
    <linearGradient id="linear-gradient-3" x1="0.5" y1="1.051" x2="0.5" y2="-0.046" gradientUnits="objectBoundingBox">
      <stop offset="0" stop-color="#fcc072"/>
      <stop offset="1" stop-color="#f58a5b"/>
    </linearGradient>
    <linearGradient id="linear-gradient-4" x1="0.109" y1="1.176" x2="0.905" y2="0.115" gradientUnits="objectBoundingBox">
      <stop offset="0" stop-color="#712b8f"/>
      <stop offset="1" stop-color="#ea1d27"/>
    </linearGradient>
  </defs>
  <g id="img_cellphone" transform="translate(-400 -4459.903)">
    <g id="Group_10" data-name="Group 10" transform="translate(400 4459.903)">
      <g id="Group_9" data-name="Group 9" transform="translate(0 0)">
        <path id="Path_21" data-name="Path 21" d="M1361.306,767.365H1173.567a4.461,4.461,0,0,0-1.153-.635c-17.246-3.52-28.8-19.326-28.624-35.989.331-31.031.095-62.071.095-93.1q0-90.867-.058-181.731c0-1.542-.883-3.083-1.355-4.624l.006-35.264c2.036-2.347,2.022-8.636-.026-10.963l.032-35.276c.466-.854,1.308-1.7,1.334-2.562.138-4.354.106-8.717,0-13.074-.015-.569-.817-1.119-1.254-1.68l0-19.165c.44-1.133,1.251-2.26,1.263-3.4.1-9.977-.118-19.956.1-29.927.248-11.084,4.8-20.353,13.839-26.706,4.728-3.327,10.5-5.177,15.8-7.69h187.739a8.532,8.532,0,0,0,1.5.664,36.514,36.514,0,0,1,28.31,36.584c-.478,25.029-.144,50.078-.066,75.116.005,1.449.825,2.893,1.268,4.343q.048,28.286.092,56.578c-.474,1.777-1.36,3.555-1.36,5.332q-.1,143.293-.052,286.583c0,14.664-6.494,25.492-19.295,32.449C1368.447,764.993,1364.783,766.005,1361.306,767.365ZM1147.339,516.107V731.423a32.139,32.139,0,0,0,32.609,32.486q87.645.009,175.289,0a32.158,32.158,0,0,0,32.293-32.13q.008-215.317,0-430.631a32.151,32.151,0,0,0-32.279-32.121q-87.818,0-175.634,0a32.127,32.127,0,0,0-32.281,32.449Q1147.332,408.793,1147.339,516.107Z" transform="translate(-1141.817 -265.579)" fill="#b2b2b2"/>
        <path id="Path_22" data-name="Path 22" d="M1229.335,306.2l.739-.06v56.6a5.438,5.438,0,0,1-.65.04Q1229.381,334.487,1229.335,306.2Z" transform="translate(-978.836 -189.493)" fill="#d5d5d5"/>
        <path id="Path_23" data-name="Path 23" d="M1142.232,301.834c.221-.009.446-.014.667-.023q-.017,17.639-.031,35.276a3.361,3.361,0,0,1-.635-.052Z" transform="translate(-1142.232 -197.611)" fill="#d3d3d3"/>
        <path id="Path_24" data-name="Path 24" d="M1142.887,353.153a5,5,0,0,1-.656-.034v-35.2c.221-.011.44-.02.661-.029Z" transform="translate(-1142.232 -167.451)" fill="#d4d4d4"/>
        <path id="Path_25" data-name="Path 25" d="M1142.979,308.342l-.747.083V289.1l.745.078Q1142.976,298.758,1142.979,308.342Z" transform="translate(-1142.232 -221.458)" fill="#d4d4d4"/>
        <path id="Path_26" data-name="Path 26" d="M1144.152,513.856q0-107.311,0-214.625a32.127,32.127,0,0,1,32.282-32.449q87.818,0,175.634,0a32.151,32.151,0,0,1,32.279,32.121q.009,215.317,0,430.631a32.158,32.158,0,0,1-32.293,32.13q-87.645,0-175.289,0a32.139,32.139,0,0,1-32.609-32.486Q1144.155,621.515,1144.152,513.856Zm229.157,1.5q0-99.555-.005-199.11c0-4.714,0-9.43-.113-14.144-.3-12.231-6.4-20.686-17.776-22.4-8.682-1.309-17.638-.9-26.475-1.038-2.18-.034-3.761,1.173-3.995,3.831-.817,9.275-4.909,13.212-14.2,13.238q-46.58.138-93.167,0c-8.783-.023-13.135-4.138-13.842-12.858-.236-2.9-1.668-4.308-4.305-4.268-8.386.124-16.824-.078-25.141.8-10.44,1.1-17.408,8.714-18.417,19.205-.495,5.136-.65,10.324-.65,15.49q-.052,173.054-.023,346.108c0,21.854-.055,43.708.207,65.559a33.913,33.913,0,0,0,2.4,12.372c3.914,9.418,12.262,12.4,21.581,12.415q84.888.211,169.776.069c.69,0,1.383-.017,2.07-.063,11.19-.742,18.811-6.568,21.095-16.525a44.826,44.826,0,0,0,.94-9.913Q1373.347,619.736,1373.309,515.351ZM1264.143,285.423c4.133,0,8.271.1,12.395-.08.825-.035,1.6-1.1,2.407-1.7-.78-.558-1.553-1.587-2.341-1.6q-12.221-.181-24.448-.009c-.808.014-1.6,1.061-2.4,1.628.777.587,1.533,1.642,2.336,1.677C1256.1,285.515,1260.125,285.421,1264.143,285.423Zm27.715,2.045c2.186-.121,2.887-2.045,2.789-4.412-.092-2.281-1.015-3.954-3.707-3.857-2.87.1-4.058,1.717-3.946,4.42C1287.1,286.249,1288.568,287.5,1291.858,287.468Z" transform="translate(-1138.633 -263.328)"/>
        <path id="Path_27" data-name="Path 27" d="M1195.257,275.527c-4.018,0-8.038.092-12.05-.083-.8-.035-1.559-1.09-2.335-1.677.8-.567,1.591-1.613,2.4-1.628q12.22-.177,24.448.009c.788.012,1.561,1.041,2.341,1.6-.8.6-1.582,1.665-2.407,1.7C1203.528,275.625,1199.39,275.527,1195.257,275.527Z" transform="translate(-1069.748 -253.432)" fill="#333"/>
        <path id="Path_28" data-name="Path 28" d="M1198.688,279.369c-3.29.032-4.756-1.219-4.863-3.848-.112-2.7,1.076-4.317,3.946-4.42,2.692-.1,3.615,1.576,3.707,3.857C1201.575,277.324,1200.874,279.248,1198.688,279.369Z" transform="translate(-1045.463 -255.229)" fill="#323232"/>
      </g>
    </g>
    <g id="Group_2" data-name="Group 2" transform="translate(473.82 4568.554)">
      <g id="Group_3" data-name="Group 3" transform="translate(0 0)">
        <g id="Group_1" data-name="Group 1" transform="translate(40.028 10.501)">
          <path id="Path_9" data-name="Path 9" d="M1351.357,347.159l-8.906,27.347s13.432-4.493,26.533-22.351L1357.257,345A4.012,4.012,0,0,0,1351.357,347.159Z" transform="translate(-1294.082 -270.441)" fill="#00568a"/>
          <path id="Path_10" data-name="Path 10" d="M1336.888,390.053a3.425,3.425,0,0,0,2.526-.627c4.483-3.287,23.406-17.624,29.4-29.646,6.819-13.673,9.546-31.388,7.532-37.449,0,0-29.615,10.762-48.278,45.014C1328.073,367.346,1326.739,388.575,1336.888,390.053Z" transform="translate(-1328.015 -322.332)" fill="#00568a"/>
        </g>
        <path id="Path_11" data-name="Path 11" d="M1384.252,459.694a49.762,49.762,0,0,1-9,.821c-32.685,0-59.181-31.894-59.181-71.242,0-34.075,19.879-62.568,46.441-69.581-5.37,8.6-24.64,34.678-18.769,82.323C1349.155,445.947,1379.551,458.072,1384.252,459.694Z" transform="translate(-1316.068 -318.037)" fill="#595a5a"/>
        <path id="Path_12" data-name="Path 12" d="M1410.938,355.615c-7.143,23.883-24.586,41.848-45.879,46.127-4.7-1.618-35-13.717-40.481-57.462.489,2.9,6.557,33.867,42.394,35.955C1388.369,381.478,1404.5,363.974,1410.938,355.615Z" transform="translate(-1296.065 -260.242)" fill="#00b8af"/>
        <path id="Path_13" data-name="Path 13" d="M1384.845,328.207c-6.437,2.674-46.7,21.269-59.623,73.7a142.277,142.277,0,0,1-.975-16.428c0-36.631,15.189-57.348,19.862-64.836a49.548,49.548,0,0,1,11.911-1.447A51.345,51.345,0,0,1,1384.845,328.207Z" transform="translate(-1296.843 -319.198)" fill="#00b8af"/>
      </g>
    </g>
    <g id="Group_12" data-name="Group 12" transform="translate(468.328 4804.441)">
      <rect id="Rectangle_17" data-name="Rectangle 17" width="130" height="41" rx="4" transform="translate(-0.328 0.248)"/>
      <path id="Path_29" data-name="Path 29" d="M1305.774,450.8v-10.7a1.149,1.149,0,0,1,1.052-1.131,1.8,1.8,0,0,1,.966.27l19.624,10.728a.867.867,0,0,1,0,1.669l-19.624,10.729a1.8,1.8,0,0,1-.966.269,1.148,1.148,0,0,1-1.052-1.13Z" transform="translate(-1295.851 -430.895)" fill-rule="evenodd" fill="url(#linear-gradient)"/>
      <path id="Path_30" data-name="Path 30" d="M1318.508,450.866l-11.881-11.881a.8.8,0,0,1,.185-.021,1.8,1.8,0,0,1,.966.27l14.458,7.9Z" transform="translate(-1295.837 -430.895)" fill-rule="evenodd" fill="url(#linear-gradient-2)"/>
      <path id="Path_31" data-name="Path 31" d="M1321.949,454.37l-3.638-3.639L1322.04,447l5.166,2.825a.867.867,0,0,1,0,1.669Z" transform="translate(-1295.64 -430.76)" fill-rule="evenodd" fill="url(#linear-gradient-3)"/>
      <path id="Path_32" data-name="Path 32" d="M1306.746,462.429l.011-.01,11.748-11.749,3.638,3.639-14.368,7.854a1.8,1.8,0,0,1-.966.269C1306.789,462.432,1306.767,462.431,1306.746,462.429Z" transform="translate(-1295.834 -430.698)" fill-rule="evenodd" fill="url(#linear-gradient-4)"/>
      <path id="Path_33" data-name="Path 33" d="M1367.66,465.123a5.686,5.686,0,0,1-1.129-1.544l1.639-.7a3.453,3.453,0,0,0,.5.772,2.24,2.24,0,0,0,1.666.769,2.2,2.2,0,0,0,1.733-.816,2.879,2.879,0,0,0,.47-1.708v-.64c-1.169,1.5-3.729,1.294-5.159-.262a4.512,4.512,0,0,1,.031-6.026c1.526-1.513,3.792-1.7,5.125-.272l0,0v-.724h1.775V461.7a3.864,3.864,0,0,1-4,4.41,3.928,3.928,0,0,1-2.656-.983Zm42.557.425h0l1.714-4.061-3.035-7.04h1.728l2.163,5.015,2.116-5.015h1.729l-4.686,11.1Zm-8.207-3.878h0a2.731,2.731,0,0,1-.761-1.885,2.379,2.379,0,0,1,.629-1.657,3.813,3.813,0,0,1,2.841-1.063,3.715,3.715,0,0,1,1.834.42,1.669,1.669,0,0,0-1.793-1.715,1.735,1.735,0,0,0-1.686,1.094l-1.553-.628a3.2,3.2,0,0,1,3.2-2.032,3.308,3.308,0,0,1,3.506,3.728V462.2h-1.693v-.763a2.9,2.9,0,0,1-.928.735,3.247,3.247,0,0,1-1.418.288,3.21,3.21,0,0,1-2.179-.786ZM1347.837,458h0a4.23,4.23,0,1,1,4.23,4.27,4.229,4.229,0,0,1-4.23-4.27Zm9.182,0h0a4.23,4.23,0,1,1,4.229,4.27,4.228,4.228,0,0,1-4.229-4.27Zm-20.64,2.244h0a6.607,6.607,0,0,1,9.242-9.442l-1.267,1.323a4.618,4.618,0,0,0-6.55.089,4.913,4.913,0,0,0-.044,6.79,4.673,4.673,0,0,0,6.693.11,3.94,3.94,0,0,0,.955-2.28h-4.291v-1.814h6.028a7.4,7.4,0,0,1,.1,1.382,6.1,6.1,0,0,1-1.642,4.1,6.04,6.04,0,0,1-4.415,1.759,6.892,6.892,0,0,1-4.808-2.013Zm42.944.762h0a4.616,4.616,0,0,1,0-6.052,3.714,3.714,0,0,1,5.541-.01,6.47,6.47,0,0,1,1.087,1.962l-5.639,2.375a2.2,2.2,0,0,0,2,1.3,2.328,2.328,0,0,0,2.108-1.188l1.474.992h0c-.17.224-.379.445-.537.619a4.278,4.278,0,0,1-6.039,0Zm10.594,1.193h0V450.959h3.618a3.593,3.593,0,0,1,3.826,3.405,3.451,3.451,0,0,1-3.492,3.4h-2.237V462.2Zm8.566,0h0V450.958h1.714V462.2Zm-22.961-.183h0V449.437h1.877v12.582Zm31.019-3.115h0a3.04,3.04,0,0,0-1.616-.412c-1.22,0-1.909.616-1.909,1.291a1.248,1.248,0,0,0,1.393,1.125,2.144,2.144,0,0,0,2.131-2Zm-52.113-.9h0a2.37,2.37,0,1,0-2.361,2.578,2.467,2.467,0,0,0,2.361-2.578Zm9.181,0h0a2.37,2.37,0,1,0-2.361,2.578,2.467,2.467,0,0,0,2.361-2.578Zm8.972.777h0a2.3,2.3,0,0,0,.067-.305c.005-.019.008-.039.005-.04a2.647,2.647,0,0,0,.036-.452,2.764,2.764,0,0,0-.036-.425.227.227,0,0,0-.008-.055,2.284,2.284,0,0,0-.1-.378,2.316,2.316,0,0,0-2.168-1.693,2.587,2.587,0,0,0,.033,5.14,2.357,2.357,0,0,0,2.168-1.792Zm7.439-.927h0l3.764-1.6a1.738,1.738,0,0,0-1.559-.882,2.369,2.369,0,0,0-2.205,2.478Zm15.591-3.447h0a1.8,1.8,0,0,0-1.918-1.779h-2.061v3.558h2.158A1.8,1.8,0,0,0,1395.611,454.4Z" transform="translate(-1295.368 -430.726)" fill="#fff" fill-rule="evenodd"/>
      <path id="Path_34" data-name="Path 34" d="M1410.254,463.256v0h-.005l0,0v-.008l0,0,0,0v0l-.005,0-.006.005v.01l.006,0Z" transform="translate(-1294.093 -430.487)" fill="#fff" fill-rule="evenodd"/>
      <path id="Path_35" data-name="Path 35" d="M1410.269,463.257l-.006-.008,0-.005h0l-.006-.005h-.005v.019h0v-.008h0l.006.008Zm-.005-.013h0l0,0h0v-.005h0l0,0Z" transform="translate(-1294.093 -430.487)" fill="#fff" fill-rule="evenodd"/>
      <path id="Path_36" data-name="Path 36" d="M1410.282,463.254h-.008v-.005h.007v0h-.007v0h.007v0h-.011v.019h.011Z" transform="translate(-1294.093 -430.487)" fill="#fff" fill-rule="evenodd"/>
      <path id="Path_37" data-name="Path 37" d="M1410.3,463.257l-.005-.019h0l-.006.019h0v-.006h.005v.006Zm-.005-.009h0v-.005h0Z" transform="translate(-1294.093 -430.487)" fill="#fff" fill-rule="evenodd"/>
      <path id="Path_38" data-name="Path 38" d="M1410.308,463.238h-.012v0h0v.016h0v-.016h0Z" transform="translate(-1294.092 -430.487)" fill="#fff" fill-rule="evenodd"/>
      <path id="Path_39" data-name="Path 39" d="M1410.321,463.254h-.008v-.005h.007v0h-.007v0h.008v0h-.012v.019h.012Z" transform="translate(-1294.092 -430.487)" fill="#fff" fill-rule="evenodd"/>
      <path id="Path_40" data-name="Path 40" d="M1410.336,463.251v-.008l-.006-.005h-.007v.019h.007l.006-.006Zm0,0h0l0,0h0v-.013h0l0,0Z" transform="translate(-1294.092 -430.487)" fill="#fff" fill-rule="evenodd"/>
      <path id="Path_41" data-name="Path 41" d="M1410.358,463.252v0l0,0,0,0h0l-.005-.005h-.006v.019h.006l.006-.005Zm-.005-.009h0l0,0h0v0h0v0Zm0,.008h0l0,0h0v-.006h0l0,0Z" transform="translate(-1294.092 -430.487)" fill="#fff" fill-rule="evenodd"/>
      <path id="Path_42" data-name="Path 42" d="M1410.373,463.238h0l0,.007h0l0-.007h0l.005.011v.008h0v-.008Z" transform="translate(-1294.091 -430.487)" fill="#fff" fill-rule="evenodd"/>
      <path id="Path_43" data-name="Path 43" d="M1410.4,463.253h-.011v-.024h-.006v.028h.016Z" transform="translate(-1294.091 -430.487)" fill="#fff" fill-rule="evenodd"/>
      <path id="Path_44" data-name="Path 44" d="M1410.419,463.25v-.015s-.005-.007-.01-.007-.009,0-.009.007v.015c0,.005.006.007.009.007s.01,0,.01-.007Zm-.005,0h0l0,0,0,0v-.013l0,0,0,0Z" transform="translate(-1294.091 -430.487)" fill="#fff" fill-rule="evenodd"/>
      <path id="Path_45" data-name="Path 45" d="M1410.44,463.258v-.017h-.009v.005h0v.005h0l0,0v-.013l.005,0,.005,0,0,0-.008,0a.009.009,0,0,0-.01.008v.014c0,.005,0,.007.009.007h.006Z" transform="translate(-1294.09 -430.487)" fill="#fff" fill-rule="evenodd"/>
      <path id="Path_46" data-name="Path 46" d="M1410.462,463.25v-.015a.008.008,0,0,0-.009-.007s-.009,0-.009.007v.015c0,.005.005.007.009.007s.009,0,.009-.007Zm0,0h0l-.005,0,0,0v-.013l0,0,.005,0Z" transform="translate(-1294.09 -430.487)" fill="#fff" fill-rule="evenodd"/>
      <path id="Path_47" data-name="Path 47" d="M1410.5,463.257v-.028h0l-.009.021-.01-.021h0v.028h0v-.017l.008.017h0l.007-.017v.017Z" transform="translate(-1294.089 -430.487)" fill="#fff" fill-rule="evenodd"/>
      <path id="Path_48" data-name="Path 48" d="M1410.529,463.257l-.008-.028h-.006l-.008.028h.005l0-.008h.007l0,.008Zm-.009-.013h0v-.007Z" transform="translate(-1294.089 -430.487)" fill="#fff" fill-rule="evenodd"/>
      <path id="Path_49" data-name="Path 49" d="M1410.548,463.251l-.005-.01-.007-.005,0,0,.005,0,0,0-.007,0c-.006,0-.009,0-.009.008l.006.008.006.005,0,0-.006,0,0,0,.009,0Z" transform="translate(-1294.088 -430.487)" fill="#fff" fill-rule="evenodd"/>
      <path id="Path_50" data-name="Path 50" d="M1410.568,463.229h-.019v0h.007v.024h.005v-.024h.006Z" transform="translate(-1294.088 -430.487)" fill="#fff" fill-rule="evenodd"/>
      <path id="Path_51" data-name="Path 51" d="M1410.587,463.253h-.012v-.008h.011v0h-.011v-.007h.011v0h-.017v.028h.017Z" transform="translate(-1294.088 -430.487)" fill="#fff" fill-rule="evenodd"/>
      <path id="Path_52" data-name="Path 52" d="M1410.61,463.257l-.008-.012.005-.007v0a.007.007,0,0,0-.008-.007h-.009v.028h.005v-.011h0l.007.011Zm-.008-.02h0l0,0h0v-.008h0l0,0Z" transform="translate(-1294.087 -430.487)" fill="#fff" fill-rule="evenodd"/>
      <path id="Path_53" data-name="Path 53" d="M1334.922,441.108a2.871,2.871,0,0,1,3-2.954,2.673,2.673,0,0,1,2.3,1.182l-.814.472a1.843,1.843,0,0,0-1.481-.763,2.065,2.065,0,0,0,0,4.126,2.052,2.052,0,0,0,1.353-.513v-.882h-1.712v-.882h2.706v2.131a3.086,3.086,0,0,1-2.347,1.045A2.883,2.883,0,0,1,1334.922,441.108Z" transform="translate(-1295.36 -430.909)" fill="#fff"/>
      <path id="Path_54" data-name="Path 54" d="M1341.4,443.957v-5.712h3.913v.883H1342.4V440.6h2.852v.882H1342.4v1.593h2.911v.882Z" transform="translate(-1295.252 -430.907)" fill="#fff"/>
      <path id="Path_55" data-name="Path 55" d="M1348,443.957v-4.829h-1.73v-.882h4.461v.882H1349v4.829Z" transform="translate(-1295.17 -430.907)" fill="#fff"/>
      <path id="Path_56" data-name="Path 56" d="M1354.08,443.957v-5.712h1v5.712Z" transform="translate(-1295.038 -430.907)" fill="#fff"/>
      <path id="Path_57" data-name="Path 57" d="M1357.837,443.957v-4.829h-1.729v-.882h4.46v.882h-1.729v4.829Z" transform="translate(-1295.004 -430.907)" fill="#fff"/>
      <path id="Path_58" data-name="Path 58" d="M1363.674,441.108a2.92,2.92,0,1,1,2.92,2.954A2.834,2.834,0,0,1,1363.674,441.108Zm4.813,0a1.9,1.9,0,1,0-1.892,2.063A1.9,1.9,0,0,0,1368.486,441.108Z" transform="translate(-1294.877 -430.909)" fill="#fff"/>
      <path id="Path_59" data-name="Path 59" d="M1374.549,443.957l-2.979-4.084v4.084h-1v-5.712h1.027l2.92,3.956v-3.956h1v5.712Z" transform="translate(-1294.761 -430.907)" fill="#fff"/>
    </g>
    <text id="eshaafi" transform="translate(468 4747.689)" fill="#00578a" font-size="30" font-family="Poppins-SemiBold, Poppins" font-weight="600"><tspan x="0" y="0">eshaafi</tspan></text>
  </g>
</svg>
