<svg xmlns="http://www.w3.org/2000/svg" width="54" height="54" viewBox="0 0 54 54">
  <g id="ic_cal_clk" transform="translate(-1054 -811)">
    <circle id="Ellipse_155" data-name="Ellipse 155" cx="27" cy="27" r="27" transform="translate(1054 811)" fill="#ff3a3a"/>
    <path id="Icon_material-call-end" data-name="Icon material-call-end" d="M15.056,13.009a18.708,18.708,0,0,0-5.771.9V17.8a1.264,1.264,0,0,1-.7,1.129,14.442,14.442,0,0,0-3.337,2.321,1.232,1.232,0,0,1-.878.351,1.251,1.251,0,0,1-.891-.364L.364,18.128A1.2,1.2,0,0,1,0,17.25a1.251,1.251,0,0,1,.364-.891,21.349,21.349,0,0,1,29.384,0,1.272,1.272,0,0,1,0,1.782l-3.112,3.112a1.251,1.251,0,0,1-.891.364,1.287,1.287,0,0,1-.878-.351,14.14,14.14,0,0,0-3.35-2.321,1.25,1.25,0,0,1-.7-1.129V13.925A18.212,18.212,0,0,0,15.056,13.009Z" transform="translate(1065.755 823.942)" fill="#fff"/>
  </g>
</svg>
