<svg xmlns="http://www.w3.org/2000/svg" width="23" height="22" viewBox="0 0 23 22">
  <g id="ic_edit" transform="translate(-1734 -390)">
    <rect id="Rectangle_318" data-name="Rectangle 318" width="23" height="22" rx="3" transform="translate(1734 390)" fill="#e67e22"/>
    <path id="Icon_awesome-edit" data-name="Icon awesome-edit" d="M9.979,2.067,12.214,4.3a.242.242,0,0,1,0,.342L6.8,10.058l-2.3.255a.482.482,0,0,1-.533-.533l.255-2.3L9.637,2.067A.242.242,0,0,1,9.979,2.067ZM13.994,1.5,12.784.29a.969.969,0,0,0-1.368,0l-.877.877a.242.242,0,0,0,0,.342l2.236,2.236a.242.242,0,0,0,.342,0l.877-.877a.969.969,0,0,0,0-1.368ZM9.518,8.585v2.523H1.586V3.177h5.7a.3.3,0,0,0,.211-.087L8.484,2.1a.3.3,0,0,0-.211-.508H1.19A1.19,1.19,0,0,0,0,2.781v8.725a1.19,1.19,0,0,0,1.19,1.19H9.914a1.19,1.19,0,0,0,1.19-1.19V7.594a.3.3,0,0,0-.508-.211L9.6,8.375A.3.3,0,0,0,9.518,8.585Z" transform="translate(1739.238 393.705)" fill="#fff"/>
  </g>
</svg>
