<svg xmlns="http://www.w3.org/2000/svg" width="23" height="22" viewBox="0 0 23 22">
  <g id="ic_invoice" transform="translate(-1788 -390)">
    <rect id="Rectangle_317" data-name="Rectangle 317" width="23" height="22" rx="3" transform="translate(1788 390)" fill="#eb6c5f"/>
    <path id="Icon_metro-file-text" data-name="Icon metro-file-text" d="M16.88,5.25A13.151,13.151,0,0,0,15.616,3.8,13.152,13.152,0,0,0,14.17,2.54a2.313,2.313,0,0,0-1.318-.612H5.659A1.161,1.161,0,0,0,4.5,3.088V15.617a1.161,1.161,0,0,0,1.16,1.16H16.332a1.161,1.161,0,0,0,1.16-1.16V6.568A2.313,2.313,0,0,0,16.88,5.25Zm-1.92-.79a12.657,12.657,0,0,1,1.052,1.18H13.779V3.408a12.644,12.644,0,0,1,1.18,1.052Zm1.6,11.157a.235.235,0,0,1-.232.232H5.659a.235.235,0,0,1-.232-.232V3.088a.235.235,0,0,1,.232-.232h7.193V6.1a.464.464,0,0,0,.464.464h3.248Zm-2.32-1.624h-6.5a.464.464,0,1,1,0-.928h6.5a.464.464,0,0,1,0,.928Zm0-1.856h-6.5a.464.464,0,0,1,0-.928h6.5a.464.464,0,1,1,0,.928Zm0-1.856h-6.5a.464.464,0,0,1,0-.928h6.5a.464.464,0,1,1,0,.928Z" transform="translate(1788.501 392.072)" fill="#fff"/>
  </g>
</svg>
