<svg xmlns="http://www.w3.org/2000/svg" width="54" height="54" viewBox="0 0 54 54">
  <g id="ic_mic_crossed" transform="translate(-760 -874)">
    <circle id="Ellipse_150" data-name="Ellipse 150" cx="27" cy="27" r="27" transform="translate(760 874)" fill="#fb2828"/>
    <path id="Icon_awesome-microphone-slash" data-name="Icon awesome-microphone-slash" d="M31.518,22.78l-7.847-6.065a8.545,8.545,0,0,0,.994-3.985V10.343a.8.8,0,0,0-.8-.8h-.8a.8.8,0,0,0-.8.8V12.73a6.185,6.185,0,0,1-.533,2.5l-1.32-1.02a4.681,4.681,0,0,0,.263-1.475V4.774a4.774,4.774,0,1,0-9.548,0V7.029L2.261.168a.8.8,0,0,0-1.117.14L.168,1.564A.8.8,0,0,0,.307,2.68L29.564,25.292a.8.8,0,0,0,1.117-.14l.977-1.257a.8.8,0,0,0-.14-1.116Zm-11.627.293H17.106V21.394a8.659,8.659,0,0,0,1.674-.413l-2.492-1.926a6.412,6.412,0,0,1-1.012.01A6.44,6.44,0,0,1,9.748,14L7.161,12v.341a9.026,9.026,0,0,0,7.558,9.035v1.7H11.934a.8.8,0,0,0-.8.8v.8a.8.8,0,0,0,.8.8h7.956a.8.8,0,0,0,.8-.8v-.8A.8.8,0,0,0,19.891,23.073Z" transform="translate(771.088 888.27)" fill="#fff"/>
  </g>
</svg>
