<svg xmlns="http://www.w3.org/2000/svg" width="222" height="222" viewBox="0 0 222 222">
  <g id="ic_patient_call" transform="translate(-849 -361)">
    <circle id="Ellipse_149" data-name="Ellipse 149" cx="111" cy="111" r="111" transform="translate(849 361)" fill="#fff"/>
    <g id="Group_2605" data-name="Group 2605" transform="translate(913.173 421.59)">
      <path id="Path_3240" data-name="Path 3240" d="M1892.155,38.149c10.841,3.238,18.29,14.163,17.191,25.259-.571,5.757-1.494,11.426-4,16.738a30.132,30.132,0,0,1-8.081,10.758c-6.823,5.571-15.337,5.766-22.308.385-6.589-5.08-9.812-12.136-11.466-19.943-1.2-5.664-1.952-11.421-.045-17.109,2.849-8.517,8.5-14.191,17.462-16.436A32.552,32.552,0,0,1,1892.155,38.149Zm-26.515,28.1c1.04,8.8,3.735,16.482,10.82,21.994,5.942,4.62,13.424,4.389,19.27-.353,4.784-3.878,7.529-9.028,9.057-14.794.84-3.178,1.187-6.481,1.753-9.723l-.924-.464-1.48,2.231-5.043-12.669a70.375,70.375,0,0,1-7.385,2.612c-6.276,1.443-12.312.148-18.222-2-2.611-.946-3.517-.571-4.39,2.018a10.4,10.4,0,0,0-.578,2.978c-.075,3.011-.029,6.021-.029,9.167Z" transform="translate(-1840.138 -37.459)" fill="#a1a1a1"/>
      <path id="Path_3241" data-name="Path 3241" d="M1923.024,49.361c17.563,1.953,29.871,17.485,27.138,34.217-.979,5.989-4.937,9.923-11.759,11.226a57.429,57.429,0,0,1-10.268,1.067q-24.082.167-48.161.009a49.489,49.489,0,0,1-8.99-.868c-9.932-1.9-14.017-7.26-13.418-17.285a30.365,30.365,0,0,1,27.527-28.354c4.071,7.817,11.232,12.692,17.881,18.036a2.317,2.317,0,0,0,2.189-.014c5.128-4.523,10.225-9.092,15.188-13.792C1921.483,52.534,1922.077,50.91,1923.024,49.361Zm5.627,28.725,4.346-.325V74.147l-4.338-.218-.255-4.249h-3.548l-.218,4.44h-4.4v3.628l4.41.357.246,4.184h3.543Z" transform="translate(-1857.509 5.851)" fill="#a1a1a1"/>
    </g>
  </g>
</svg>
